<svg xmlns="http://www.w3.org/2000/svg" style="display: none;">
  <!-- Перша іконка -->
  <symbol id="feature-icon-1" viewBox="0 0 64 64">
    <path d="M61.5463 44.1952L44.6599 27.1851L46.534 17.9541C47.0176 18.1429 47.5318 18.2416 48.0508 18.2453H48.0636C50.4482 18.2735 52.404 16.3633 52.4323 13.9788C52.4606 11.5943 50.5503 9.6384 48.1658 9.61013C45.7812 9.582 43.8254 11.4921 43.7971 13.8767C43.7911 14.3869 43.8755 14.8941 44.0466 15.3749L34.1266 16.5856L17.9452 0.32C17.7467 0.117467 17.4757 0.00226667 17.1921 0C16.9121 0.00146667 16.644 0.112933 16.4455 0.3104L13.4204 3.3184C13.004 3.73493 13.004 4.41013 13.4204 4.82667L15.0481 6.47787C8.74201 18.0737 10.7903 32.4335 20.0871 41.8037C20.1724 41.8853 20.2713 41.9513 20.3793 41.9989C20.3121 42.3599 20.2771 42.7261 20.2748 43.0933V55.4667H7.47481C4.53081 55.4701 2.14495 57.856 2.14148 60.8V62.9333C2.14148 63.5224 2.61908 64 3.20815 64H52.2748C52.8639 64 53.3415 63.5224 53.3415 62.9333V60.8C53.338 57.856 50.9522 55.4701 48.0082 55.4667H35.2082V49.9829C37.2134 50.4035 39.2564 50.6179 41.3052 50.6229C46.2215 50.6176 51.0595 49.392 55.3852 47.056L57.0215 48.7019C57.22 48.9044 57.491 49.0196 57.7746 49.0219C58.0546 49.0204 58.3227 48.9089 58.5212 48.7115L61.5463 45.7035C61.9627 45.2869 61.9627 44.6117 61.5463 44.1952Z" fill="#2E2F42"/>
    <path d="M27.7511 40.5333H27.7415C25.9742 40.5306 24.5394 41.9612 24.5367 43.7285C24.534 45.4958 25.9646 46.9306 27.7319 46.9333H27.7415C29.5088 46.936 30.9436 45.5054 30.9463 43.7381C30.9489 41.9708 29.5184 40.536 27.7511 40.5333Z" fill="#4D5AE5"/>
  </symbol>

  <!-- Друга іконка -->
  <symbol id="feature-icon-2" viewBox="0 0 64 64">
    <path d="M62.5933 30.6025C62.5899 13.6978 48.8828 -0.00341734 31.9775 6.39362e-07C15.0728 0.00341861 1.37158 13.7109 1.375 30.6157C1.37793 43.9316 9.98877 55.7178 22.6738 59.7681C22.7949 59.8062 22.9209 59.8257 23.0474 59.8252C23.2886 59.8247 23.5249 59.7603 23.7324 59.6377C24.0024 59.478 24.2041 59.2241 24.2988 58.9248L32.0288 34.4248C34.1421 34.4141 35.8462 32.6919 35.835 30.5791C35.8242 28.4658 34.1025 26.7617 31.9893 26.7725C31.4209 26.7749 30.8599 26.9058 30.3491 27.1553L20.1372 16.9419C19.6304 16.4526 18.8232 16.4668 18.334 16.9731C17.8564 17.4678 17.8564 18.251 18.334 18.7456L28.5405 28.9639C27.7573 30.5625 28.2051 32.4922 29.6133 33.582L22.248 56.9277C7.69238 51.5659 0.239258 35.4199 5.60108 20.8643C10.9629 6.30859 27.1089 -1.14453 41.6646 4.21729C56.2202 9.5791 63.6733 25.7256 58.3115 40.2808C55.6919 47.3921 50.3096 53.1431 43.3872 56.2275L42.5913 52.479C42.4458 51.79 41.7686 51.3496 41.0796 51.4956C40.8623 51.542 40.6606 51.6441 40.4946 51.792L32.8208 58.6431C32.2944 59.1113 32.2476 59.9175 32.7163 60.4439C32.8687 60.6148 33.064 60.7417 33.2827 60.8115L43.0801 63.9385C43.7505 64.1538 44.4688 63.7852 44.6841 63.1143C44.7524 62.9024 44.7637 62.6768 44.7178 62.459L43.9356 58.7808C55.2642 54.0049 62.6196 42.8965 62.5933 30.6025Z" fill="#2E2F42"/>
  </symbol> 

<!-- Третя іконка -->
  <symbol id="feature-icon-3" viewBox="0 0 64 64">
  <g clip-path="url(#clip0_302815_4209)">
    <path d="M29.851 29.9292H31.9833V39.5242H29.851V29.9292Z" fill="#4D5AE5"/>
    <path d="M38.3799 34.1936H40.5121V39.5242H38.3799V34.1936Z" fill="#4D5AE5"/>
    <path d="M21.3222 37.392H23.4544V39.5242H21.3222V37.392Z" fill="#4D5AE5"/>
    <path d="M14.9255 36.3258H17.0577V39.5241H14.9255V36.3258Z" fill="#4D5AE5"/>
    <path d="M3.19833 56.5819H54.3715C56.1378 56.5819 57.5699 55.1499 57.5699 53.3836V49.1192C57.5699 47.3529 56.1378 45.9209 54.3715 45.9209H53.3054V19.3343L59.3611 13.5977C60.7666 14.2905 62.4678 13.8699 63.3876 12.6003C64.308 11.3312 64.1789 9.58364 63.0826 8.46339C61.9863 7.34314 60.2424 7.17604 58.953 8.06776C57.6641 8.96 57.206 10.6513 57.8681 12.0719L53.3054 16.3973V13.9376C53.3054 12.1713 51.8734 10.7393 50.1071 10.7393H7.46276C5.6965 10.7393 4.26443 12.1713 4.26443 13.9376V45.9209H3.19833C1.43206 45.9209 0 47.3529 0 49.1192V53.3836C0 55.1499 1.43206 56.5819 3.19833 56.5819ZM60.7682 9.67317C61.3569 9.67317 61.8343 10.1505 61.8343 10.7393C61.8343 11.328 61.3569 11.8054 60.7682 11.8054C60.1794 11.8054 59.7021 11.328 59.7021 10.7393C59.7021 10.1505 60.1794 9.67317 60.7682 9.67317ZM6.39665 13.9376C6.39665 13.3489 6.874 12.8715 7.46276 12.8715H50.1071C50.6958 12.8715 51.1732 13.3489 51.1732 13.9376V18.4149L49.041 20.441V16.0698C49.041 15.4811 48.5636 15.0037 47.9749 15.0037H9.59498C9.00622 15.0037 8.52887 15.4811 8.52887 16.0698V42.7225C8.52887 43.3113 9.00622 43.7886 9.59498 43.7886H47.9749C48.5636 43.7886 49.041 43.3113 49.041 42.7225V23.3738L51.1732 21.3535V45.9209H6.39665V13.9376Z" fill="#2E2F42"/>
  </g>
  <defs>
    <clipPath id="clip0_302815_4209">
      <rect width="64" height="64" fill="white"/>
    </clipPath>
  </defs>
</symbol>


<!-- Четверта іконка -->
  <symbol id="feature-icon-4" viewBox="0 0 64 64">
    <path d="M63.9481 9.04812C63.8222 8.66299 63.4895 8.38149 63.0873 8.32274L59.2665 7.76698L57.5566 4.30455C57.1983 3.57492 56.0025 3.57492 55.6441 4.30455L53.9342 7.76698L50.1133 8.32286C49.7112 8.38149 49.3784 8.66212 49.2514 9.04825C49.1266 9.43438 49.23 9.85889 49.5213 10.1416L52.2872 12.8372L51.6344 16.6431C51.5662 17.0431 51.7304 17.4474 52.0579 17.6864C52.3897 17.9275 52.8227 17.9573 53.1822 17.7674L56.5999 15.97L60.0176 17.7674C60.1733 17.8495 60.3451 17.89 60.5147 17.89C60.7354 17.89 60.9563 17.8218 61.1419 17.6863C61.4704 17.4474 61.6347 17.043 61.5654 16.643L60.9127 12.8371L63.6786 10.1415C63.9684 9.85776 64.073 9.43425 63.9481 9.04812ZM59.0223 11.702C58.7717 11.9463 58.6564 12.3004 58.7162 12.6461L59.098 14.8743L57.097 13.8226C56.9413 13.7404 56.7706 13.6999 56.5999 13.6999C56.4292 13.6999 56.2596 13.7404 56.1027 13.8226L54.1016 14.8743L54.4835 12.6461C54.5432 12.3004 54.428 11.9474 54.1773 11.702L52.5571 10.1234L54.795 9.79801C55.1427 9.74788 55.4425 9.52926 55.5982 9.2145L56.5988 7.18785L57.5993 9.2145C57.755 9.52913 58.0548 9.74788 58.4025 9.79801L60.6404 10.1234L59.0223 11.702Z" fill="#4D5AE5"/>
    <path d="M52.2669 41.0444H50.1335V43.1778H52.2669V41.0444Z" fill="#4D5AE5"/>
    <path d="M52.2669 45.3112H50.1335V47.4446H52.2669V45.3112Z" fill="#4D5AE5"/>
    <path d="M54.4003 43.1778H52.2669V45.3112H54.4003V43.1778Z" fill="#4D5AE5"/>
    <path d="M50.1337 43.1778H48.0003V45.3112H50.1337V43.1778Z" fill="#4D5AE5"/>
    <path d="M44.8002 52.778H42.6668V54.9113H44.8002V52.778Z" fill="#4D5AE5"/>
    <path d="M44.8002 57.0446H42.6668V59.1781H44.8002V57.0446Z" fill="#4D5AE5"/>
    <path d="M46.9336 54.9113H44.8002V57.0448H46.9336V54.9113Z" fill="#4D5AE5"/>
    <path d="M42.6668 54.9113H40.5334V57.0448H42.6668V54.9113Z" fill="#4D5AE5"/>
    <path d="M32 48.5113H29.8666V50.6447H32V48.5113Z" fill="#4D5AE5"/>
    <path d="M32 52.778H29.8666V54.9113H32V52.778Z" fill="#4D5AE5"/>
    <path d="M34.1334 50.6445H32V52.7779H34.1334V50.6445Z" fill="#4D5AE5"/>
    <path d="M29.8666 50.6445H27.7332V52.7779H29.8666V50.6445Z" fill="#4D5AE5"/>
    <path d="M11.733 12.2439H9.59964V14.3773H11.733V12.2439Z" fill="#4D5AE5"/>
    <path d="M11.733 16.5108H9.59964V18.6442H11.733V16.5108Z" fill="#4D5AE5"/>
    <path d="M13.8663 14.3774H11.7329V16.5108H13.8663V14.3774Z" fill="#4D5AE5"/>
    <path d="M9.59964 14.3774H7.46624V16.5108H9.59964V14.3774Z" fill="#4D5AE5"/>
    <path d="M49.4295 28.3189C48.8546 27.5434 48.0109 27.0443 47.053 26.9098C46.0909 26.7733 45.1415 27.026 44.3734 27.6138L41.8699 29.5327L38.0735 32.368L35.3577 31.2864C40.2004 29.1136 43.5851 24.2698 43.5851 18.6462C43.5851 11.0002 37.3396 4.77933 29.6627 4.77933C21.9858 4.77933 15.7405 11.0002 15.7405 18.6462C15.7405 21.4175 16.5693 23.9945 17.9805 26.163L12.4529 26.115L5.50471 29.4185L1.71578 31.2405C0.0805013 32.3156 -0.433632 34.289 0.393131 35.9018C0.833638 36.7594 1.58352 37.391 2.50516 37.68C2.86042 37.7908 3.22305 37.8453 3.58356 37.8453C4.16282 37.8453 4.7367 37.7035 5.26246 37.423L8.038 35.9467L12.5661 33.6085L15.2797 33.5925L4.39632 44.4237L1.71565 47.0925C1.08314 47.7219 0.735387 48.557 0.735387 49.4478C0.735387 50.3374 1.08314 51.1747 1.71565 51.8052C2.36529 52.4516 3.21968 52.7758 4.07406 52.7758C4.92958 52.7758 5.78284 52.4516 6.4346 51.8052L9.06289 49.1875L12.5446 46.588L14.3462 48.3821L10.8229 51.8904L8.14225 54.5592C7.50974 55.1886 7.16199 56.0237 7.16199 56.9145C7.16199 57.8041 7.50974 58.6414 8.14225 59.2719C8.79189 59.9183 9.6474 60.2426 10.5018 60.2426C11.3562 60.2426 12.2117 59.9183 12.8623 59.2719L15.5407 56.6052L19.8256 52.3386L21.847 50.3353L32.2151 38.9805L39.1571 39.9682L46.3231 35.5342C46.3817 35.4755 46.4627 35.4243 46.4627 35.4243L49.0056 33.0424C50.3288 31.8026 50.5112 29.7717 49.4295 28.3189Z" fill="#2E2F42"/>
    <path d="M27.2042 37.0881L22.9182 32.8214C22.5033 32.4065 21.8291 32.4065 21.4131 32.8214L17.1283 37.0881C16.9278 37.2897 16.8146 37.5606 16.8146 37.8443C16.8146 38.1281 16.9266 38.4001 17.1283 38.6006L21.4131 42.8673C21.6211 43.0742 21.8942 43.1777 22.1662 43.1777C22.4382 43.1777 22.7112 43.0742 22.9182 42.8673L27.2042 38.6006C27.4047 38.4001 27.5188 38.1281 27.5188 37.8443C27.5188 37.5606 27.4057 37.2886 27.2042 37.0881ZM22.1662 40.606L19.3928 37.8443L22.1662 35.0827L24.9406 37.8443L22.1662 40.606Z" fill="#2E2F42"/>
    <path d="M34.3285 10.1415L33.8133 12.2131C33.9552 12.2483 37.2886 13.1166 37.2886 16.5108H39.422C39.4219 12.4765 36.0907 10.5799 34.3285 10.1415Z" fill="#2E2F42"/>
    <path d="M39.422 18.644H37.2886V20.7775H39.422V18.644Z" fill="#2E2F42"/>
  </symbol>

</svg>